<?xml version="1.0" encoding="UTF-8" standalone="no"?><!-- Generator: Gravit.io --><svg xmlns="http://www.w3.org/2000/svg" xmlns:xlink="http://www.w3.org/1999/xlink" style="isolation:isolate" viewBox="0 0 583.937 583.937" width="583.937pt" height="583.937pt"><defs><clipPath id="_clipPath_F8DPYM1WTOfu8HWMgYZHjqafPNrQiVlT"><rect width="583.937" height="583.937"/></clipPath></defs><g clip-path="url(#_clipPath_F8DPYM1WTOfu8HWMgYZHjqafPNrQiVlT)"><g><path d=" M 353.459 391.78 C 353.591 391.318 354.185 387.538 354.779 383.38 C 355.423 378.872 356.072 375.82 356.386 375.82 C 358.407 375.82 368.622 369.526 368.638 368.271 C 368.643 367.735 365.285 364.861 363.069 363.507 C 362.042 362.88 362.051 362.875 366.005 361.948 C 368.74 361.306 372.74 359.473 374.606 358.004 L 375.873 357.008 L 372.516 354.352 L 369.158 351.695 L 373.102 349.338 C 375.27 348.042 378.125 346.033 379.445 344.874 L 381.845 342.767 L 378.805 339.68 L 375.766 336.594 L 378.03 336.023 C 379.275 335.71 381.15 335.016 382.197 334.482 C 384.112 333.506 388.325 329.92 388.325 329.267 C 388.325 329.074 386.87 327.799 385.091 326.433 C 382.038 324.089 381.923 323.932 383.051 323.639 C 387.179 322.563 398.88 315.057 398.184 313.93 C 398.052 313.716 396.429 312.626 394.578 311.508 C 392.728 310.389 391.314 309.311 391.438 309.111 C 391.562 308.911 394.692 306.972 398.394 304.803 C 402.096 302.634 405.125 300.811 405.125 300.752 C 405.125 300.693 403.72 299.613 402.002 298.351 C 400.284 297.09 398.99 295.878 399.127 295.657 C 399.263 295.436 402.667 293.26 406.69 290.82 C 410.713 288.38 414.196 286.218 414.429 286.014 C 414.663 285.81 413.631 284.361 412.137 282.795 L 409.42 279.946 L 410.821 279.366 C 413.863 278.106 419.045 271.419 419.045 268.754 C 419.045 268.231 417.94 267.472 415.833 266.546 L 412.62 265.136 L 415.452 263.538 C 419.005 261.532 422.766 257.652 424.732 253.964 C 425.564 252.403 426.245 250.913 426.245 250.654 C 426.245 250.394 424.102 249.777 421.484 249.281 L 416.722 248.38 L 422.78 244.06 C 430.052 238.874 431.747 237.443 433.527 234.988 C 436.598 230.753 434.489 226.196 428.681 224.521 C 428.215 224.386 428.48 223.981 429.515 223.244 C 431.563 221.785 434.948 217.307 437.306 212.935 C 438.693 210.364 439.616 209.208 440.545 208.877 C 441.26 208.623 447.245 206.533 453.845 204.232 C 467.45 199.49 472.681 197.122 486.965 189.24 C 492.509 186.181 499.961 182.069 503.525 180.102 C 516.612 172.881 527.324 164.974 538.41 154.351 C 544.016 148.98 544.235 148.824 543.755 150.565 C 542.047 156.755 536.905 166.182 532.129 171.88 C 528.924 175.704 521.059 182.932 515.765 186.919 C 507.563 193.096 488.722 203.677 472.382 211.283 C 459.462 217.296 443.068 225.603 443.054 226.143 C 443.048 226.32 444.611 226.027 446.525 225.491 C 453.122 223.644 462.028 220.19 470.405 216.232 C 475.025 214.049 481.937 210.8 485.765 209.013 C 498.003 203.299 505.371 199.083 518.885 190.063 C 526.579 184.927 542.355 175.45 542.676 175.771 C 542.789 175.884 541.64 177.984 540.123 180.438 C 537 185.491 530.032 193.135 525.779 196.174 C 524.231 197.28 520.481 199.962 517.445 202.134 C 504.876 211.125 485.388 221.49 471.125 226.772 C 466.901 228.336 461.379 230.625 458.855 231.859 C 454.069 234.198 445.245 239.46 445.568 239.783 C 446.052 240.266 466.492 232.38 478.085 227.237 C 487.04 223.265 492.237 220.536 504.965 213.126 C 512.097 208.974 529.252 199.422 535.159 196.314 L 536.313 195.707 L 535.199 197.563 C 531.352 203.971 524.335 211.465 518.387 215.519 C 516.681 216.682 513.341 218.631 510.965 219.851 C 508.589 221.071 503.729 223.842 500.165 226.01 C 486.677 234.214 460.843 246.044 442.815 252.272 C 440.02 253.237 437.823 254.118 437.933 254.228 C 438.25 254.545 446.461 253.022 451.513 251.71 C 461.153 249.205 469.07 245.596 493.685 232.486 C 503.527 227.244 513.449 222.53 520.445 219.772 C 523.247 218.668 523.254 218.774 520.662 223.11 C 516.142 230.668 507.6 237.15 498.485 239.937 C 496.637 240.502 492.209 242.448 488.645 244.262 C 478.788 249.279 463.089 255.77 445.48 262.11 C 441.143 263.672 437.471 265.076 437.32 265.231 C 436.878 265.683 442.337 264.949 448.575 263.717 C 456.415 262.17 464.519 259.337 472.589 255.324 C 477.439 252.912 482.959 250.76 492.251 247.657 L 505.17 243.345 L 502.308 246.266 C 494.689 254.043 485.679 259.705 474.485 263.75 C 472.109 264.608 467.573 266.436 464.405 267.812 C 461.237 269.188 454.433 271.72 449.285 273.438 C 439.919 276.563 437.975 277.345 441.125 276.717 C 453.369 274.277 462.051 271.688 471.825 267.563 C 477.558 265.144 493.73 260.265 494.26 260.795 C 494.64 261.175 489.714 266.229 486.691 268.561 C 480.77 273.128 474.032 276.018 466.142 277.376 C 463.339 277.858 456.293 279.782 450.485 281.651 C 444.677 283.521 438.66 285.398 437.113 285.823 C 435.567 286.248 434.379 286.673 434.473 286.766 C 434.824 287.112 447.868 284.998 455.525 283.354 C 462.966 281.756 473.348 280.297 477.125 280.319 L 478.805 280.327 L 476.645 282.204 C 470.936 287.166 460.315 291.743 452.165 292.753 C 449.921 293.031 443.691 294.489 438.322 295.992 C 427.839 298.926 427.511 299.212 434.029 299.737 C 436.895 299.968 438.585 299.767 443.405 298.622 C 446.639 297.854 449.285 297.295 449.285 297.38 C 449.285 297.464 446.801 299.188 443.764 301.21 C 434.998 307.048 425.68 310.806 415.027 312.802 L 410.645 313.622 L 413.285 314.004 C 418.725 314.791 427.532 313.405 432.965 310.908 C 437.345 308.894 444.153 306.206 444.356 306.41 C 444.45 306.504 442.843 308.138 440.786 310.042 C 433.821 316.487 424.423 321.984 415.205 325.005 C 412.961 325.74 411.464 326.35 411.878 326.36 C 413.204 326.392 429.197 322.232 434.301 320.528 C 438.118 319.712 441.163 316.911 436.699 321.466 C 429.557 328.754 420.092 333.787 409.445 335.96 L 405.365 336.793 L 407.515 337.394 C 409.422 337.927 410.972 337.802 421.183 336.295 C 427.518 335.359 432.757 334.65 432.826 334.719 C 433.062 334.955 426.963 339.196 423.542 341.174 C 417.206 344.839 407.465 348.169 400.134 349.176 L 397.783 349.499 L 399.654 350.614 L 401.525 351.73 L 411.845 349.657 C 417.521 348.517 422.221 347.639 422.29 347.707 C 422.515 347.926 416.966 352.116 413.384 354.43 C 407.41 358.29 397.47 362.232 391.459 363.125 C 389.294 363.447 389.183 363.521 390.259 363.938 C 391.953 364.593 401.319 363.981 405.704 362.928 C 409.092 362.115 409.367 362.108 408.975 362.84 C 408.285 364.129 404.41 367.514 401.471 369.394 C 396.574 372.526 391.75 373.988 385.205 374.323 L 379.445 374.618 L 384.605 375.563 C 387.443 376.083 389.765 376.666 389.765 376.86 C 389.765 377.479 385.485 380.183 381.929 381.81 C 377.571 383.804 373.107 384.907 367.921 385.273 L 363.848 385.561 L 366.002 387.05 C 367.186 387.868 368.158 388.696 368.16 388.889 C 368.177 390.168 360.087 392.599 355.773 392.611 C 353.569 392.617 353.253 392.504 353.459 391.778 L 353.459 391.78 Z  M 343.497 378.056 C 343.543 370.114 343.421 368.467 342.605 365.98 C 340.848 360.62 336.335 352.348 332.4 347.276 C 331.686 346.356 331.627 346.373 330.006 347.996 C 328.375 349.629 328.325 349.8 327.302 357.243 C 326.728 361.414 326.114 364.654 325.937 364.443 C 325.407 363.813 315.205 341.542 315.205 341.015 C 315.205 340.747 316.24 338.973 317.504 337.071 L 319.803 333.614 L 321.579 336.357 C 324.554 340.951 328.692 343.978 333.826 345.315 C 337.373 346.238 340.508 346.31 340.159 345.459 C 339.509 343.878 335.505 331.499 334.652 328.432 C 333.7 325.013 333.699 324.949 334.606 323.797 C 335.111 323.154 335.525 322.301 335.525 321.902 C 335.525 321.502 334.553 317.661 333.365 313.367 C 332.177 309.072 331.205 305.412 331.205 305.234 C 331.205 305.056 332.16 304.545 333.327 304.099 C 335.613 303.226 339.066 299.861 339.897 297.696 C 340.202 296.899 340.381 292.114 340.35 285.579 C 340.306 276.317 340.433 274.258 341.237 271.117 C 343.01 264.2 348.199 255.592 354.233 249.558 C 361.13 242.661 375.741 234.465 389.765 229.626 C 397.851 226.836 413.432 220.144 419.045 217.051 C 423.446 214.626 429.847 210.218 433.862 206.847 C 436.941 204.262 437.285 204.085 437.285 205.089 C 437.285 205.703 436.94 207.378 436.519 208.812 C 434.743 214.861 430.78 220.097 425.565 223.286 C 424.15 224.151 421.649 225.801 420.008 226.951 C 414.422 230.868 402.179 236.447 393.125 239.203 L 389.045 240.444 L 385.925 239.495 C 384.209 238.974 381.548 238.545 380.012 238.543 C 377.42 238.54 377.229 238.615 377.372 239.577 C 377.501 240.453 378.143 240.759 381.485 241.535 C 383.663 242.041 385.442 242.6 385.438 242.777 C 385.435 242.954 384.32 244.36 382.962 245.901 C 379.93 249.341 375.221 252.957 371.194 254.94 C 369.278 255.883 368.165 256.726 368.165 257.234 C 368.165 259.013 369.306 259.505 375.365 260.337 C 378.665 260.79 381.671 261.262 382.044 261.386 C 382.434 261.515 379.37 263.86 374.844 266.897 C 365.012 273.495 364.929 273.572 368.248 273.03 C 370.727 272.625 379.856 273.663 381.546 274.542 C 381.994 274.775 379.982 276.445 375.306 279.72 C 365.616 286.508 365.955 286.179 368.954 285.881 C 371.048 285.674 371.919 285.873 374.678 287.191 L 377.933 288.745 L 371.139 293.028 C 367.402 295.384 364.502 297.454 364.695 297.629 C 364.887 297.803 366.989 298.647 369.365 299.505 C 371.741 300.363 373.754 301.124 373.839 301.197 C 373.924 301.269 371.386 303.096 368.198 305.257 C 365.01 307.418 362.491 309.328 362.601 309.502 C 362.711 309.677 364.438 310.467 366.441 311.259 C 368.443 312.051 370.076 312.807 370.071 312.939 C 370.065 313.072 367.042 315.178 363.353 317.621 C 359.663 320.064 356.645 322.232 356.645 322.439 C 356.645 322.645 358.157 323.339 360.005 323.979 C 361.853 324.62 363.365 325.267 363.365 325.417 C 363.365 325.566 360.665 327.702 357.365 330.162 C 354.065 332.623 351.365 334.728 351.365 334.84 C 351.365 334.952 351.951 335.266 352.667 335.538 C 353.673 335.921 354.382 335.847 355.787 335.213 C 357.512 334.436 357.703 334.438 359.525 335.259 C 360.581 335.736 361.445 336.278 361.445 336.464 C 361.445 336.65 358.41 338.815 354.701 341.275 C 350.992 343.735 347.847 345.926 347.712 346.145 C 347.577 346.363 348.022 346.752 348.701 347.01 C 349.624 347.361 350.356 347.278 351.607 346.682 C 353.264 345.892 353.299 345.898 355.322 347.364 C 356.446 348.178 357.365 349.068 357.365 349.342 C 357.365 349.617 355.097 351.397 352.325 353.297 C 349.553 355.198 347.069 356.964 346.805 357.223 C 346.491 357.53 347.49 357.614 349.685 357.467 C 353.813 357.19 357.101 355.638 360.065 352.57 C 362.951 349.581 363.889 349.666 367.422 353.236 L 370.249 356.093 L 369.087 357.048 C 367.106 358.676 361.886 361.008 358.836 361.627 C 356.12 362.178 355.915 362.313 355.782 363.637 C 355.645 365.002 355.768 365.097 359.022 366.145 C 360.883 366.744 362.405 367.455 362.405 367.725 C 362.405 367.995 361.16 369.461 359.638 370.983 C 357.054 373.567 355.757 374.276 352.151 375.079 C 350.832 375.372 350.81 375.421 351.608 376.303 C 352.4 377.178 352.377 377.326 351.109 379.49 C 349.501 382.234 346.662 385.372 344.807 386.455 L 343.445 387.251 L 343.497 378.055 L 343.497 378.056 Z  M 346.09 292.548 C 346.558 290.266 346.555 288.668 346.073 284.759 C 344.365 270.913 349.511 258.697 360.966 249.409 L 362.646 248.046 L 360.006 249.411 C 358.485 250.197 355.619 252.506 353.245 254.859 C 349.807 258.266 348.744 259.711 346.82 263.585 L 344.515 268.229 L 344.275 278.239 C 344.027 288.541 344.446 297.349 345.124 296.11 C 345.332 295.73 345.767 294.127 346.091 292.548 L 346.09 292.548 Z  M 201.045 385.88 C 193.936 385.291 184.768 383.667 180.485 382.237 C 178.505 381.577 174.833 380.024 172.325 378.788 L 167.765 376.539 L 174.245 376.377 C 177.809 376.287 185.045 376.479 190.325 376.803 C 199.63 377.374 207.573 377.068 212.738 375.94 C 214.188 375.623 214.076 375.567 211.445 375.289 C 209.861 375.121 203.273 374.734 196.805 374.429 C 178.582 373.568 176.103 373.279 170.323 371.345 C 167.518 370.407 163.311 368.644 160.974 367.429 L 156.726 365.219 L 159.606 365.457 C 161.19 365.588 168.533 366.264 175.925 366.959 C 190.026 368.286 193.199 368.246 202.085 366.629 C 206.022 365.913 204.952 365.549 197.525 365.075 C 194.621 364.89 186.598 364.207 179.695 363.557 C 165.825 362.252 163.267 361.647 155.286 357.78 C 150.56 355.491 145.344 352.328 146.267 352.31 C 146.587 352.305 150.151 352.716 154.187 353.225 C 164.399 354.512 176.72 355.312 180.721 354.947 C 185.177 354.541 194.832 352.857 195.797 352.317 C 196.276 352.049 195.488 351.985 193.684 352.147 C 186.302 352.81 161.677 350.438 154.834 348.406 C 151.146 347.311 143.512 343.584 140.166 341.245 L 138.006 339.736 L 139.686 340.006 C 142.804 340.509 158.114 341.695 165.605 342.014 C 170.179 342.209 175.45 342.113 179.285 341.764 C 185.776 341.174 189.983 340.457 187.685 340.333 C 187.025 340.298 176.919 339.447 165.228 338.442 L 143.97 336.615 L 139.068 334.152 C 134.352 331.782 127.339 327.046 127.826 326.56 C 127.955 326.431 130.298 326.755 133.033 327.282 C 138.803 328.392 148.691 329.543 156.246 329.986 C 161.919 330.318 168.995 329.756 175.925 328.424 L 180.245 327.594 L 171.365 327.283 C 155.271 326.72 143.428 325.035 135.967 322.248 C 131.147 320.447 123.631 316.811 120.246 314.643 L 118.326 313.413 L 120.726 313.655 C 130.727 314.665 137.693 315.521 144.244 316.547 C 152.039 317.768 163.886 318.139 168.965 317.321 L 171.125 316.974 L 168.725 316.608 C 147 313.298 126.945 309.829 124.806 309.01 C 121.507 307.748 112.492 303.138 110.886 301.892 L 109.686 300.961 L 111.288 300.95 C 112.17 300.944 120.702 301.357 130.248 301.867 C 153.777 303.125 162.718 303.402 161.526 302.837 C 160.185 302.201 133.472 296.953 123.606 295.387 C 116.186 294.209 115.055 293.896 111.133 291.934 C 106.823 289.778 100.19 285.565 99.599 284.608 C 99.4 284.286 99.695 284.185 100.406 284.332 C 101.022 284.459 103.47 284.695 105.846 284.858 C 111.282 285.229 119.149 286.229 128.406 287.724 C 135.867 288.929 146.058 289.923 150.392 289.867 C 152.555 289.839 151.948 289.62 145.822 288.212 C 141.937 287.319 134.593 285.494 129.502 284.156 C 124.411 282.818 114.846 280.353 108.246 278.677 C 95.921 275.547 91.318 273.99 87.171 271.544 C 83.878 269.603 79.852 266.415 77.286 263.72 C 75.377 261.714 75.265 261.485 76.326 261.744 C 86.776 264.299 145.171 277.775 145.325 277.666 C 145.39 277.619 145.066 276.687 144.605 275.593 C 143.821 273.735 143.592 273.57 141.126 273.079 C 128.138 270.489 113.265 266.453 102.246 262.528 C 98.418 261.165 91.182 258.692 86.166 257.033 C 75.618 253.546 71.848 251.926 67.657 249.08 C 64.475 246.919 57.691 240.681 56.114 238.466 L 55.182 237.157 L 58.674 238.306 C 90.275 248.706 101.933 252.46 111.366 255.275 C 122.982 258.74 138.154 263.019 138.826 263.019 C 139.259 263.019 139.318 261.325 138.934 259.896 C 138.72 259.102 137.401 258.607 131.38 257.066 C 120.537 254.29 110.353 251.05 95.067 245.513 C 72.807 237.449 67.228 234.922 60.508 229.858 C 53.807 224.808 46.313 216.22 41.537 208.116 L 39.308 204.333 L 41.377 205.895 C 52.166 214.037 65.77 221.199 77.429 224.873 C 79.594 225.555 85.362 227.704 90.246 229.648 C 107.408 236.479 130.435 244.253 131.52 243.583 C 131.787 243.417 132.006 242.656 132.006 241.891 C 132.006 240.577 131.814 240.444 128.526 239.491 C 109.585 234.003 88.587 225.746 73.503 217.855 C 57.314 209.386 41.545 197.702 35.216 189.485 C 32.866 186.435 29.188 180.384 28.097 177.773 L 27.384 176.067 L 30.615 178.583 C 32.392 179.966 35.898 182.863 38.406 185.02 C 44.237 190.035 47.151 191.976 55.697 196.535 C 59.519 198.574 64.698 201.384 67.206 202.78 C 82.731 211.422 91.074 215.461 104.943 221.049 C 118.179 226.382 125.619 228.374 135.126 229.132 L 138.486 229.4 L 133.926 227.802 C 131.418 226.923 127.432 225.293 125.068 224.179 C 122.704 223.066 115.457 220.019 108.963 217.409 C 87.296 208.701 67.036 198.695 57.606 192.044 C 52.083 188.149 41.629 179.83 38.237 176.632 C 30.207 169.061 26.139 160.069 25.636 148.78 L 25.39 143.26 L 27.7 147.58 C 32.362 156.296 36.38 161.218 45.366 169.223 C 58.213 180.666 73.072 190.47 88.74 197.838 C 103.595 204.824 115.468 209.769 128.882 214.557 L 137.999 217.811 L 139.682 221.106 C 140.608 222.919 141.852 225.078 142.446 225.905 C 143.883 227.905 143.807 228.782 142.108 229.816 L 140.689 230.678 L 142.044 231.479 C 143.141 232.127 143.459 232.729 143.713 234.646 C 144.208 238.373 146.967 243.347 150.201 246.341 L 153.009 248.941 L 149.468 249.983 C 147.519 250.557 145.926 251.207 145.926 251.429 C 145.926 252.138 151.122 260.139 153.566 263.192 C 154.863 264.813 156.802 266.988 157.873 268.025 L 159.822 269.911 L 157.554 271.252 C 153.025 273.929 153.099 273.573 156.266 277.445 C 157.805 279.325 160.545 282.023 162.356 283.44 L 165.649 286.017 L 162.475 288.022 L 159.3 290.027 L 160.893 291.678 C 162.801 293.656 169.733 298.839 172.952 300.693 L 175.258 302.022 L 173.818 302.898 C 172.138 303.919 171.043 305.454 170.376 307.721 C 169.936 309.218 170.018 309.441 171.473 310.694 C 174.164 313.012 179.359 315.872 183.487 317.309 C 185.664 318.067 187.504 318.69 187.575 318.693 C 187.647 318.696 186.729 320.155 185.535 321.934 C 184.342 323.714 183.365 325.397 183.365 325.675 C 183.365 326.323 188.582 329.365 192.005 330.713 C 193.457 331.285 196.122 332.13 197.927 332.591 L 201.208 333.43 L 198.749 336.385 C 195.929 339.774 195.941 339.898 199.434 343.118 C 202.14 345.613 207.517 348.258 210.797 348.709 L 213.233 349.044 L 210.196 352.109 L 207.159 355.173 L 209.254 357.308 C 211.726 359.826 215.974 362.21 218.795 362.661 C 219.9 362.838 220.805 363.092 220.805 363.226 C 220.805 363.36 219.794 365.362 218.558 367.674 L 216.312 371.879 L 217.62 378.708 C 218.339 382.464 218.811 385.654 218.668 385.797 C 218.205 386.259 206.307 386.315 201.045 385.88 L 201.045 385.88 Z  M 154.029 277.465 C 155.085 276.796 152.707 275.518 149.755 275.169 L 147.222 274.869 L 148.117 276.384 C 148.914 277.733 149.252 277.899 151.189 277.892 C 152.386 277.889 153.664 277.696 154.029 277.465 Z  M 141.606 244.516 C 141.606 243.748 138.171 241.929 136.686 241.91 C 136.116 241.902 135.846 242.27 135.846 243.052 C 135.846 243.978 136.198 244.298 137.646 244.682 C 140.395 245.412 141.606 245.361 141.606 244.516 L 141.606 244.516 Z  M 265.205 374.311 C 264.413 373.24 261.713 370.572 259.205 368.382 C 256.697 366.192 253.277 362.974 251.605 361.23 C 249.933 359.486 248.485 358.06 248.387 358.06 C 248.289 358.06 248.066 358.82 247.892 359.749 C 247.581 361.407 247.477 361.271 242.392 352.496 C 239.542 347.577 236.992 343.335 236.726 343.069 C 236.402 342.744 235.436 342.779 233.788 343.174 C 231.894 343.628 231.382 343.943 231.547 344.551 C 231.664 344.985 232.028 346.841 232.355 348.676 L 232.95 352.013 L 230.704 354.047 C 226.206 358.119 219.163 359.227 214.14 356.652 L 212.034 355.573 L 215.69 351.896 L 219.347 348.22 L 224.516 347.063 C 231.155 345.577 231.303 345.498 229.734 344.264 L 228.484 343.281 L 225.485 344.236 C 221.617 345.468 215.029 345.547 210.764 344.411 C 207.69 343.593 202.391 341.183 201.892 340.376 C 201.601 339.905 205.678 336.3 207.671 335.266 C 208.367 334.905 210.544 334.459 212.507 334.275 C 214.471 334.091 215.899 333.778 215.681 333.58 C 214.725 332.709 207.279 330.755 203.865 330.479 C 201.808 330.312 198.676 329.732 196.905 329.189 C 193.628 328.185 187.673 325.454 187.701 324.967 C 187.71 324.82 190.427 323.083 193.74 321.108 L 199.762 317.517 L 195.855 316.91 C 190.953 316.15 185.486 314.341 181.445 312.142 C 178.348 310.457 174.289 307.648 174.26 307.17 C 174.252 307.033 176.027 306.435 178.205 305.84 C 181.364 304.978 183.405 304.761 188.285 304.769 L 194.405 304.78 L 194.405 303.362 C 194.405 301.802 194.383 301.794 188.41 301.152 C 184.727 300.756 178.469 298.941 174.349 297.075 C 170.281 295.232 164.955 291.788 165.462 291.327 C 165.673 291.136 166.925 290.632 168.245 290.209 C 170.207 289.58 171.61 289.51 175.925 289.829 C 178.829 290.043 181.276 290.166 181.362 290.102 C 181.853 289.74 175.477 286.122 173.045 285.383 C 169.327 284.253 167.845 283.494 164.762 281.143 C 162.569 279.47 159.366 275.846 159.366 275.038 C 159.366 274.062 171.621 276.075 176.065 277.78 C 176.995 278.137 176.636 275.955 175.685 275.475 C 175.289 275.276 172.913 274.153 170.405 272.982 C 165.319 270.605 159.743 266.429 156.405 262.494 C 153.986 259.644 150.527 254.419 150.848 254.098 C 151.183 253.763 159.29 255.285 164.166 256.598 C 166.673 257.273 170.846 258.692 173.437 259.752 C 176.028 260.811 178.228 261.598 178.325 261.501 C 178.423 261.403 178.139 260.503 177.694 259.5 C 176.97 257.867 176.433 257.486 172.565 255.857 C 161.459 251.181 150.563 242.451 148.381 236.483 C 147.823 234.955 147.366 233.135 147.366 232.439 L 147.366 231.173 L 148.446 232.166 C 153.163 236.502 172.411 246.179 172.292 244.155 C 172.2 242.588 171.314 241.713 168.613 240.517 C 157.943 235.794 147.836 227.295 144.003 219.821 L 143.141 218.141 L 151.133 222.068 C 157.61 225.25 167.289 229.132 184.723 235.539 C 185.787 235.93 185.726 236.022 183.487 237.413 C 182.193 238.218 180.689 239.503 180.145 240.269 L 179.157 241.661 L 182.846 245.671 L 186.534 249.681 L 188.377 248.431 C 190.854 246.75 193.79 246.725 195.742 248.367 C 197.277 249.659 197.765 249.533 197.765 247.848 C 197.765 245.792 196.158 245.26 189.947 245.26 C 186.82 245.26 183.845 245.037 183.334 244.764 C 181.26 243.654 182.807 239.557 186.059 237.547 C 188.445 236.073 192.073 236.009 194.422 237.399 C 195.337 237.94 198.084 239.229 200.528 240.262 C 203.965 241.715 206.568 243.363 212.03 247.544 L 219.091 252.947 L 224.455 263.384 L 229.819 273.82 L 230.766 284.144 L 231.712 294.469 L 234.667 300.854 L 237.623 307.24 L 235.689 310.45 L 233.755 313.66 L 235.08 314.741 C 235.809 315.336 236.783 315.944 237.245 316.094 C 237.707 316.243 238.085 316.649 238.085 316.996 C 238.085 317.343 236.363 321.768 234.258 326.83 L 230.431 336.033 L 231.498 337.681 C 232.734 339.589 233.166 339.65 237.012 338.453 C 240.556 337.35 244.686 334.649 247.206 331.786 L 249.125 329.605 L 249.125 331.987 C 249.125 335.064 250.217 338.219 252.052 340.446 C 253.24 341.887 253.677 342.13 254.39 341.748 C 256.273 340.741 260.873 336.1 263.021 333.042 L 265.278 329.828 L 266.84 335.184 C 268.359 340.392 269.98 343.18 271.49 343.18 C 272.431 343.18 278.309 336.543 280.925 332.527 L 283.33 328.833 L 285.317 332.792 C 287.268 336.679 290.649 341.74 291.295 341.74 C 291.475 341.74 293.853 338.811 296.58 335.23 L 301.537 328.72 L 305.011 332.47 C 306.921 334.533 309.222 337.066 310.124 338.101 L 311.765 339.981 L 311.73 345.301 C 311.697 350.144 311.47 351.451 309.196 359.898 C 307.822 365 306.399 369.86 306.034 370.698 C 305.404 372.145 305.384 372.066 305.627 369.088 C 306.224 361.792 303.742 352.32 299.556 345.923 C 296.156 340.727 295.856 340.602 295.436 344.218 C 294.875 349.054 294.315 350.236 287.8 360.362 L 281.596 370.005 L 280.517 367.352 C 278.957 363.512 277.134 361.114 274.154 358.98 C 272.71 357.946 271.376 357.1 271.188 357.1 C 271.001 357.1 270.143 359.746 269.282 362.98 C 267.88 368.24 267.633 369.887 267.854 372.495 C 267.889 372.91 267.631 373.926 267.281 374.754 L 266.645 376.258 L 265.205 374.311 Z  M 260.923 351.064 C 261.608 346.332 262.229 342.398 262.303 342.323 C 262.377 342.249 265.004 344.982 268.141 348.398 C 271.278 351.814 274.004 354.629 274.198 354.654 C 274.795 354.731 272.725 349.977 271.017 347.348 C 268.624 343.666 262.617 338.38 260.827 338.38 C 259.678 338.38 258.485 344.615 258.485 350.62 C 258.485 355.884 258.964 360.38 259.472 359.873 C 259.584 359.761 260.237 355.797 260.923 351.064 Z  M 230.55 329.983 C 231.23 329.696 231.347 329.297 231.099 328.119 C 230.926 327.294 230.629 326.452 230.439 326.248 C 230.249 326.044 228.727 326.225 227.057 326.654 C 224.939 327.197 223.211 327.331 221.342 327.097 C 219.021 326.807 215.045 325.593 215.045 325.173 C 215.045 325.095 217.115 321.537 219.646 317.266 C 222.176 312.995 224.141 309.395 224.013 309.267 C 223.885 309.139 222.625 309.387 221.213 309.819 C 216.354 311.303 204.73 311.214 202.237 309.673 C 201.891 309.46 203.77 306.796 207.377 302.386 C 210.503 298.563 212.988 295.362 212.9 295.274 C 212.811 295.186 211.49 295.344 209.964 295.626 C 204.252 296.682 197.919 295.734 192.299 292.983 L 189.671 291.696 L 193.515 289.837 C 197.532 287.895 202.543 284.781 205.505 282.386 L 207.246 280.98 L 202.385 280.944 C 198.485 280.916 196.84 280.669 194.054 279.695 C 190.023 278.285 186.106 276.114 186.485 275.5 C 186.629 275.267 189.768 272.885 193.461 270.208 C 197.153 267.532 200.071 265.175 199.945 264.971 C 199.399 264.088 192.104 259.72 190.684 259.426 C 187.361 258.738 185.012 254.503 186.208 251.358 C 186.48 250.644 186.564 250.06 186.395 250.06 C 185.749 250.06 178.131 254.545 178.304 254.824 C 178.403 254.985 181.831 257.705 185.92 260.868 L 193.354 266.62 L 190.875 267.82 C 189.512 268.48 187.681 269.531 186.807 270.156 C 185.297 271.237 181.445 275.71 181.446 276.383 C 181.446 276.557 184.145 278.428 187.442 280.54 C 190.74 282.652 193.439 284.522 193.442 284.696 C 193.444 284.87 191.592 286.748 189.326 288.868 C 184.763 293.137 184.76 293.147 187.925 295.668 C 191.489 298.505 195.62 300.22 200.346 300.825 L 203.121 301.18 L 199.48 306.206 L 195.839 311.232 L 197.642 312.333 C 200.436 314.039 205.274 315.387 209.872 315.739 L 214.059 316.06 L 211.672 321.036 C 210.359 323.773 209.285 326.2 209.285 326.428 C 209.285 327.029 213.682 329.166 216.612 329.988 C 219.228 330.723 228.808 330.719 230.55 329.983 L 230.55 329.983 Z  M 227.969 291.327 C 227.452 287.506 226.808 281.788 226.54 278.62 C 225.937 271.509 225.114 268.069 222.979 263.74 C 220.761 259.241 217.556 255.293 213.998 252.673 C 211.208 250.619 211.024 250.555 210.165 251.333 C 209.668 251.782 209.321 252.3 209.394 252.484 C 209.466 252.668 211.18 254.129 213.203 255.731 C 217.65 259.253 219.304 261.57 220.974 266.621 C 222.01 269.752 222.245 271.356 222.245 275.293 C 222.245 280.71 222.782 284.351 224.257 288.94 C 225.288 292.147 228.405 298.78 228.728 298.457 C 228.828 298.357 228.486 295.149 227.969 291.327 L 227.969 291.327 Z  M 205.445 248.62 C 205.445 247.601 203.839 247.244 203.285 248.14 C 202.842 248.857 203.459 249.58 204.514 249.58 C 205.125 249.58 205.445 249.25 205.445 248.62 L 205.445 248.62 Z  M 220.896 372.858 L 219.933 371.336 L 222.649 366.154 C 224.143 363.303 225.581 360.876 225.845 360.76 C 226.109 360.643 227.514 360.014 228.967 359.362 L 231.609 358.176 L 231.127 362.798 C 230.862 365.34 230.488 367.662 230.295 367.957 C 230.103 368.253 228.217 369.209 226.106 370.081 C 222.946 371.385 222.365 371.785 222.825 372.339 C 223.2 372.792 223.945 372.927 225.094 372.752 L 226.805 372.491 L 224.885 373.423 C 222.315 374.67 222.017 374.628 220.896 372.858 L 220.896 372.858 Z  M 360.482 346.816 C 359.293 346.488 357.821 345.952 357.211 345.626 C 356.134 345.049 356.187 344.981 359.055 343.247 C 360.68 342.265 363.138 340.466 364.517 339.249 C 366.895 337.153 367.142 337.05 369.256 337.289 C 371.251 337.514 371.742 337.835 373.917 340.335 L 376.348 343.13 L 374.536 344.367 C 372.226 345.946 367.205 347.512 364.634 347.457 C 363.54 347.434 361.672 347.145 360.482 346.816 Z  M 330.613 338.328 C 327.402 335.511 323.618 330.056 322.024 325.943 C 321.4 324.335 320.781 323.024 320.647 323.029 C 320.514 323.035 318.893 325.622 317.045 328.78 C 315.197 331.937 313.546 334.525 313.375 334.53 C 313.205 334.536 311.122 331.891 308.747 328.653 C 305.63 324.405 303.942 322.535 302.681 321.933 C 301.719 321.475 300.843 321.1 300.734 321.1 C 300.625 321.1 298.531 324.442 296.081 328.526 C 293.631 332.611 291.475 335.797 291.29 335.606 C 289.551 333.815 287.066 326.012 287.052 322.3 C 287.046 320.691 286.777 320.166 285.392 319.061 L 283.739 317.742 L 281.14 322.181 C 279.711 324.622 277.225 328.878 275.616 331.639 C 273.864 334.645 272.594 336.378 272.449 335.959 C 272.316 335.574 271.092 331.588 269.729 327.1 C 268.367 322.612 267.108 318.781 266.932 318.588 C 266.757 318.394 264.031 322.434 260.875 327.565 C 257.626 332.849 255.005 336.644 254.832 336.317 C 254.663 336 253.722 331.96 252.741 327.34 C 251.76 322.72 250.874 318.855 250.773 318.751 C 250.671 318.647 250.453 318.971 250.289 319.471 C 248.273 325.606 243.868 330.766 238.421 333.377 C 236.555 334.271 234.948 334.923 234.851 334.826 C 234.754 334.728 236.507 330.574 238.748 325.594 L 242.822 316.54 L 245.996 314.924 C 249.39 313.196 253.761 309.52 254.858 307.47 C 255.226 306.782 255.663 306.22 255.828 306.22 C 255.994 306.22 256.974 308.812 258.005 311.98 C 259.036 315.148 260.029 317.74 260.211 317.74 C 260.393 317.74 262.454 315.374 264.793 312.483 C 267.131 309.592 269.175 307.378 269.335 307.563 C 269.496 307.748 270.655 310.384 271.912 313.42 C 273.168 316.456 274.374 319.132 274.592 319.366 C 274.809 319.601 276.965 316.743 279.389 313.006 C 281.81 309.274 283.929 306.221 284.098 306.222 C 284.267 306.222 286.005 309.193 287.961 312.822 C 289.917 316.451 291.732 319.698 291.995 320.037 C 292.345 320.491 293.552 318.73 296.54 313.402 C 298.777 309.413 300.778 306.327 300.988 306.545 C 301.197 306.762 302.82 310.228 304.593 314.247 C 306.367 318.266 307.978 321.455 308.174 321.334 C 308.37 321.213 310.112 317.547 312.045 313.187 C 313.978 308.827 315.706 305.26 315.884 305.26 C 316.063 305.26 316.491 305.942 316.836 306.775 C 318.045 309.694 322.25 315.609 325.493 318.955 L 328.765 322.331 L 331.196 331.385 C 332.532 336.364 333.562 340.502 333.484 340.58 C 333.406 340.658 332.114 339.645 330.613 338.328 L 330.613 338.328 Z  M 365.39 332.404 C 363.996 332.067 362.744 331.678 362.607 331.541 C 362.47 331.404 364.102 330.07 366.233 328.577 C 369.701 326.147 370.434 325.831 373.199 325.573 C 376.227 325.29 376.354 325.326 379.428 327.328 C 381.153 328.452 382.565 329.45 382.565 329.546 C 382.565 330.068 378.192 331.822 375.434 332.407 C 371.585 333.223 368.768 333.222 365.39 332.404 L 365.39 332.404 Z  M 364.386 321.671 C 363.368 321.36 363.951 320.824 369.846 316.651 L 376.446 311.978 L 380.826 311.972 C 384.347 311.967 385.936 312.22 388.936 313.259 C 390.988 313.97 392.59 314.782 392.496 315.064 C 392.19 315.984 384.612 319.518 380.543 320.638 C 376.422 321.773 366.747 322.391 364.386 321.671 L 364.386 321.671 Z  M 328.232 316.172 C 327.029 314.526 325.119 311.667 323.989 309.819 C 321.654 306.004 316.331 295.247 316.327 294.339 C 316.319 292.335 315.168 294.79 312.453 302.599 C 310.759 307.472 309.237 311.306 309.07 311.119 C 308.904 310.933 307.192 306.722 305.265 301.763 C 303.095 296.174 301.62 292.976 301.387 293.353 C 301.181 293.687 300.866 294.828 300.688 295.89 C 299.928 300.42 293.918 315.096 293.431 313.61 C 293.354 313.373 292.213 309.53 290.897 305.069 C 289.581 300.608 288.445 296.904 288.374 296.838 C 287.879 296.378 282.956 295.248 282.709 295.537 C 282.539 295.736 280.809 300.086 278.864 305.202 C 276.918 310.319 275.268 314.315 275.196 314.082 C 275.125 313.85 274.545 310.143 273.909 305.844 C 272.919 299.155 272.556 297.737 271.393 296.004 L 270.034 293.979 L 269.652 297.1 C 269.188 300.89 266.683 306.266 264.31 308.56 L 262.635 310.18 L 262.155 308.32 C 259.535 298.153 258.164 293.018 258.032 292.886 C 257.945 292.8 257.426 294.198 256.879 295.994 C 255.066 301.949 250.891 307.033 245.419 309.949 C 243.819 310.802 242.394 311.5 242.252 311.5 C 242.109 311.5 242.488 310.258 243.093 308.739 C 243.698 307.221 245.643 302.258 247.415 297.71 L 250.636 289.44 L 258.231 284.15 C 262.408 281.24 265.956 278.859 266.115 278.859 C 266.274 278.859 266.405 279.257 266.405 279.743 C 266.405 281.473 269.339 286.459 271.603 288.577 C 275.727 292.434 275.224 292.554 281.166 286.296 C 284.047 283.262 286.519 280.779 286.66 280.779 C 286.8 280.779 288.717 283.911 290.918 287.74 C 293.119 291.567 295.052 294.699 295.212 294.699 C 295.373 294.699 296.972 292.107 298.765 288.939 C 300.559 285.771 302.166 283.186 302.336 283.194 C 302.506 283.203 304.481 285.356 306.725 287.98 C 309.512 291.238 310.929 292.565 311.197 292.165 C 311.413 291.843 312.935 289.156 314.579 286.195 L 317.567 280.81 L 320.693 284.995 L 323.82 289.18 L 327.269 304.023 C 329.166 312.187 330.651 318.934 330.569 319.016 C 330.487 319.098 329.435 317.818 328.232 316.172 L 328.232 316.172 Z  M 372.485 309.233 C 371.825 309.115 371.117 308.858 370.911 308.661 C 370.706 308.465 372.758 306.616 375.471 304.552 C 380.258 300.911 380.577 300.754 386.165 299.272 L 391.925 297.744 L 395.405 299.161 C 397.319 299.94 398.875 300.713 398.862 300.879 C 398.851 301.044 397.823 301.998 396.582 302.999 C 393.728 305.3 388.448 307.911 384.744 308.852 C 382.083 309.529 375.306 309.74 372.485 309.233 Z  M 374.244 297.336 C 372.968 296.985 371.85 296.625 371.761 296.535 C 371.671 296.445 373.997 294.877 376.93 293.05 C 381.362 290.289 384.2 289.013 393.731 285.494 C 400.039 283.165 405.444 281.26 405.742 281.26 C 406.04 281.26 407.099 282.055 408.094 283.027 L 409.904 284.794 L 402.739 289.072 C 396.049 293.067 395.042 293.507 387.546 295.705 C 379.024 298.204 377.904 298.342 374.244 297.336 Z  M 306.795 281.499 C 304.874 277.935 303.221 275.019 303.122 275.019 C 303.024 275.019 301.059 277.665 298.758 280.9 C 296.457 284.133 294.426 286.95 294.246 287.159 C 294.066 287.368 292.456 284.074 290.668 279.839 C 288.881 275.604 287.246 272.139 287.036 272.139 C 286.826 272.139 283.888 275.217 280.508 278.979 C 277.127 282.741 274.245 285.729 274.103 285.619 C 273.961 285.509 272.236 281.891 270.27 277.579 C 268.304 273.267 266.576 269.746 266.43 269.754 C 266.284 269.762 265.416 271.076 264.5 272.675 C 262.169 276.745 257.027 281.453 252.638 283.538 C 250.686 284.465 248.997 285.131 248.885 285.019 C 248.537 284.671 258.452 268.359 259.029 268.329 C 260.314 268.26 267.391 264.318 269.393 262.555 L 271.578 260.632 L 271.917 262.891 C 272.341 265.721 274.061 269.162 276.041 271.142 L 277.561 272.661 L 281.463 267.068 L 285.365 261.475 L 289.269 265.607 C 291.416 267.88 293.36 269.733 293.589 269.726 C 293.818 269.718 295.182 268.098 296.62 266.125 C 298.058 264.152 299.373 262.7 299.542 262.898 C 299.711 263.097 301.083 265.035 302.591 267.206 C 304.098 269.376 305.505 271.259 305.718 271.39 C 306.264 271.728 308.871 267.963 310.554 264.405 C 311.799 261.771 312.217 260.314 313.267 254.931 C 313.462 253.934 313.857 254.272 316.634 257.811 C 318.365 260.015 319.945 262.252 320.146 262.779 C 320.932 264.845 325.101 284.644 324.811 284.934 C 324.281 285.464 320.852 282.761 319.282 280.575 C 317.437 278.006 316.88 276.603 316.142 272.67 L 315.567 269.6 L 313.009 278.79 C 311.603 283.844 310.415 287.979 310.37 287.979 C 310.325 287.979 308.716 285.063 306.795 281.499 L 306.795 281.499 Z  M 378.291 284.826 C 376.864 284.178 375.784 283.58 375.891 283.497 C 375.998 283.414 378.791 281.588 382.098 279.438 C 386.955 276.282 388.94 275.293 392.418 274.297 C 394.787 273.618 398.722 272.079 401.164 270.877 L 405.602 268.69 L 410.19 269.516 L 414.777 270.342 L 413.713 271.475 C 411.959 273.342 406.126 277.159 401.525 279.451 C 396.121 282.143 383.991 286.136 381.536 286.032 C 381.178 286.018 379.718 285.474 378.291 284.826 L 378.291 284.826 Z  M 380.699 271.087 L 378.593 270.617 L 380.977 269.256 C 383.779 267.655 387.63 263.598 389.256 260.533 L 390.407 258.364 L 402.277 255.11 L 414.147 251.856 L 417.676 252.931 L 421.205 254.006 L 417.699 257.295 C 413.259 261.46 408.348 264.523 401.844 267.184 C 391.117 271.573 386.607 272.405 380.699 271.087 L 380.699 271.087 Z  M 275.799 260.807 C 273.908 255.284 273.561 253.748 273.778 251.859 C 273.922 250.605 273.955 249.579 273.85 249.579 C 273.746 249.579 272.468 251.606 271.01 254.084 L 268.359 258.588 L 264.862 259.54 C 262.939 260.063 261.302 260.439 261.225 260.375 C 261.148 260.311 262.552 257.262 264.345 253.599 L 267.605 246.939 L 273.605 242.547 L 279.605 238.155 L 283.216 241.707 C 285.202 243.661 286.946 245.259 287.092 245.259 C 287.238 245.259 288.382 243.642 289.634 241.665 L 291.911 238.071 L 295.307 240.995 L 298.704 243.918 L 299.954 242.318 C 300.642 241.438 301.657 240.191 302.209 239.548 L 303.214 238.379 L 304.849 240.6 C 305.749 241.822 306.628 242.83 306.803 242.841 C 306.977 242.852 308.67 240.915 310.565 238.539 C 312.46 236.163 314.165 234.219 314.355 234.219 C 314.545 234.219 315.768 235.669 317.073 237.44 C 319.342 240.52 319.54 241.049 321.642 249.652 C 324.095 259.692 324.089 259.711 319.819 255.197 C 316.687 251.884 313.753 247.367 312.645 244.149 L 311.787 241.659 L 311.483 244.779 C 311.237 247.295 306.215 266.09 305.633 266.672 C 305.546 266.758 304.754 264.838 303.872 262.404 C 302.414 258.379 302.313 257.764 302.756 255.589 C 303.149 253.665 303.098 252.892 302.496 251.629 C 302.084 250.766 301.625 250.062 301.476 250.064 C 301.327 250.067 299.625 253.091 297.693 256.784 C 295.761 260.478 293.997 263.499 293.773 263.499 C 292.392 263.499 287.871 255.447 287.277 251.929 C 287.103 250.901 286.793 250.059 286.588 250.059 C 286.384 250.059 285.658 251.301 284.976 252.819 C 284.293 254.337 282.463 258.256 280.908 261.527 L 278.082 267.475 L 275.799 260.807 Z  M 379.814 255.879 C 378.697 255.681 377.664 255.4 377.518 255.254 C 377.373 255.109 379.924 252.485 383.187 249.423 L 389.12 243.857 L 401.722 238.559 L 414.324 233.261 L 419.738 233.261 C 422.715 233.261 426.169 233.4 427.414 233.571 L 429.676 233.881 L 426.881 236.749 C 423.315 240.406 418.104 243.854 413.654 245.499 C 409.648 246.98 407.186 248.128 400.812 251.488 C 394.303 254.92 391.246 255.877 386.165 256.073 C 383.789 256.165 380.931 256.079 379.814 255.879 L 379.814 255.879 Z  M 284.833 238.151 C 283.335 236.24 281.887 233.209 281.234 230.615 L 280.656 228.322 L 279.706 230.191 C 278.21 233.13 275.995 235.687 273.662 237.167 C 272.481 237.916 271.455 238.469 271.382 238.397 C 271.309 238.324 271.791 235.917 272.453 233.048 C 273.446 228.745 273.945 227.495 275.308 225.902 C 277.112 223.795 278.885 220.466 278.885 219.188 C 278.885 217.765 279.55 218.313 281.986 221.745 C 283.296 223.59 284.496 225.099 284.652 225.099 C 284.809 225.099 285.604 224.397 286.419 223.539 C 288.165 221.703 289.925 218.369 289.925 216.9 C 289.925 215.986 290.241 216.132 292.588 218.138 C 294.053 219.389 295.327 220.334 295.419 220.236 C 295.511 220.139 296.387 218.69 297.364 217.016 L 299.142 213.973 L 300.413 215.188 C 301.113 215.856 302.645 216.832 303.818 217.356 C 305.698 218.196 306.101 218.23 307.226 217.649 C 308.83 216.819 310.191 214.78 310.538 212.687 L 310.805 211.074 L 314.143 215.063 L 317.482 219.052 L 318.341 225.796 C 318.813 229.505 319.138 232.728 319.063 232.958 C 318.987 233.189 317.475 230.327 315.701 226.598 C 313.927 222.87 312.399 219.819 312.306 219.819 C 312.212 219.819 312.339 220.937 312.587 222.302 C 313.35 226.497 311.584 233.188 308.832 236.528 L 307.919 237.636 L 305.586 230.528 C 304.303 226.618 303.063 223.214 302.829 222.964 C 302.58 222.696 302.405 223.615 302.405 225.193 C 302.405 228.981 299.429 238.059 298.188 238.059 C 297.991 238.059 296.537 235.579 294.957 232.547 C 293.378 229.516 291.96 227.032 291.808 227.027 C 291.655 227.022 290.442 229.764 289.112 233.118 C 287.783 236.472 286.504 239.267 286.27 239.329 C 286.036 239.391 285.39 238.861 284.833 238.151 L 284.833 238.151 Z  M 271.815 219.168 C 270.445 207.46 264.294 200.478 254.645 199.678 L 250.805 199.359 L 254.165 197.716 C 257.242 196.21 257.896 196.071 261.921 196.066 L 266.317 196.06 L 265.521 194.652 C 263.921 191.822 257.144 185.484 254.165 184.032 C 250.923 182.452 245.52 181.87 242.821 182.811 C 240.958 183.46 240.646 183.223 241.345 181.688 C 243.327 177.338 248.569 174.432 253.714 174.83 C 257.365 175.113 259.87 176.222 264.701 179.7 C 269.315 183.02 275.419 186.047 279.025 186.804 C 281.508 187.324 281.833 187.281 284.04 186.136 L 286.4 184.911 L 289.483 186.311 C 291.178 187.08 294.509 188.442 296.885 189.337 C 299.261 190.232 304.001 192.036 307.419 193.346 L 313.633 195.727 L 311.259 196.425 C 309.953 196.809 307.751 197.411 306.365 197.762 C 304.979 198.114 303.845 198.564 303.845 198.764 C 303.845 199.895 306.187 200.62 309.842 200.62 L 313.704 200.62 L 316.289 206.625 C 317.711 209.928 318.734 212.771 318.563 212.942 C 317.955 213.55 314.412 212.088 313.575 210.884 C 311.997 208.613 309.989 206.38 309.524 206.38 C 309.27 206.38 308.314 208 307.399 209.98 C 306.484 211.96 305.58 213.572 305.39 213.563 C 304.23 213.506 302.676 211.968 301.033 209.251 C 299.571 206.832 298.9 206.14 298.018 206.14 C 296.972 206.14 296.864 206.379 296.609 209.26 C 296.324 212.494 295.381 215.98 294.793 215.98 C 294.607 215.98 293.172 214.314 291.605 212.277 L 288.755 208.575 L 287.184 213.597 C 286.321 216.36 285.612 218.89 285.61 219.22 C 285.601 220.46 284.799 219.656 281.815 215.409 L 278.745 211.041 L 277.972 214.11 C 277.13 217.453 275.32 220.88 273.499 222.581 L 272.341 223.662 L 271.815 219.168 Z  M 297.845 187.685 C 293.114 185.978 289.747 184.26 286.621 181.96 C 281.606 178.268 280.622 177.888 276.005 177.852 C 273.761 177.835 271.04 178.005 269.958 178.231 C 268.09 178.62 267.889 178.545 266.015 176.761 C 264.269 175.101 264.083 174.719 264.415 173.48 C 265.079 170.997 267.311 170.141 273.125 170.141 C 279.159 170.141 282.329 171.078 288.415 174.66 C 294.458 178.216 304.405 180.941 311.348 180.941 C 314.653 180.941 314.705 181.646 311.628 184.723 C 307.874 188.478 302.965 189.532 297.845 187.685 L 297.845 187.685 Z " fill="rgb(162,164,167)"/></g></g></svg>