<?xml version="1.0" encoding="UTF-8" standalone="no"?>
<!-- Created with Inkscape (http://www.inkscape.org/) -->

<svg
   xmlns:dc="http://purl.org/dc/elements/1.1/"
   xmlns:cc="http://creativecommons.org/ns#"
   xmlns:rdf="http://www.w3.org/1999/02/22-rdf-syntax-ns#"
   xmlns:svg="http://www.w3.org/2000/svg"
   xmlns="http://www.w3.org/2000/svg"
   xmlns:xlink="http://www.w3.org/1999/xlink"
   xmlns:sodipodi="http://sodipodi.sourceforge.net/DTD/sodipodi-0.dtd"
   xmlns:inkscape="http://www.inkscape.org/namespaces/inkscape"
   width="512"
   height="512"
   viewBox="0 0 135.46666 135.46667"
   version="1.1"
   id="svg8"
   inkscape:version="0.92.3 (2405546, 2018-03-11)"
   sodipodi:docname="favicon.svg">
  <defs
     id="defs2">
    <linearGradient
       inkscape:collect="always"
       id="linearGradient4533">
      <stop
         style="stop-color:#440055;stop-opacity:1;"
         offset="0"
         id="stop4529" />
      <stop
         style="stop-color:#a300cc;stop-opacity:1"
         offset="1"
         id="stop4531" />
    </linearGradient>
    <linearGradient
       inkscape:collect="always"
       xlink:href="#linearGradient4533"
       id="linearGradient4535"
       x1="-0.37797621"
       y1="229.24773"
       x2="135.88245"
       y2="229.24773"
       gradientUnits="userSpaceOnUse" />
  </defs>
  <sodipodi:namedview
     id="base"
     pagecolor="#ffffff"
     bordercolor="#666666"
     borderopacity="1.0"
     inkscape:pageopacity="0.0"
     inkscape:pageshadow="2"
     inkscape:zoom="1.4"
     inkscape:cx="-77.142857"
     inkscape:cy="288.50724"
     inkscape:document-units="mm"
     inkscape:current-layer="layer1"
     showgrid="false"
     units="px"
     inkscape:pagecheckerboard="true"
     inkscape:window-width="3200"
     inkscape:window-height="1721"
     inkscape:window-x="1911"
     inkscape:window-y="-9"
     inkscape:window-maximized="1" />
  <metadata
     id="metadata5">
    <rdf:RDF>
      <cc:Work
         rdf:about="">
        <dc:format>image/svg+xml</dc:format>
        <dc:type
           rdf:resource="http://purl.org/dc/dcmitype/StillImage" />
        <dc:title></dc:title>
      </cc:Work>
    </rdf:RDF>
  </metadata>
  <g
     inkscape:label="Layer 1"
     inkscape:groupmode="layer"
     id="layer1"
     transform="translate(0,-161.5333)">
    <rect
       style="fill:url(#linearGradient4535);fill-opacity:1;stroke:none;stroke-width:0.5;stroke-miterlimit:4;stroke-dasharray:none;stroke-opacity:1"
       id="rect4527"
       width="136.26042"
       height="135.88243"
       x="-0.37797621"
       y="161.30652" />
    <g
       aria-label="KC"
       style="font-style:normal;font-variant:normal;font-weight:normal;font-stretch:normal;font-size:105.83333588px;line-height:0;font-family:Impact;-inkscape-font-specification:Impact;letter-spacing:0px;word-spacing:0px;fill:#ffffff;fill-opacity:1;stroke:none;stroke-width:0.26458332"
       id="text817"
       transform="matrix(6.7394093,0,0,6.7394093,-179.73637,-1070.4355)">
      <path
         d="m 36.579825,186.09585 -1.992643,6.04408 2.182812,7.34219 h -3.596679 l -1.405599,-5.73815 v 5.73815 h -3.480924 v -13.38627 h 3.480924 v 5.20072 l 1.546159,-5.20072 z"
         style="font-style:normal;font-variant:normal;font-weight:normal;font-stretch:normal;font-size:16.93333244px;font-family:Impact;-inkscape-font-specification:Impact;stroke-width:0.26458332;fill:#ffffff;fill-opacity:1"
         id="path819"
         inkscape:connector-curvature="0" />
      <path
         d="m 45.211856,191.93322 h -3.480924 v -2.33164 q 0,-1.01699 -0.115755,-1.26504 -0.107487,-0.25631 -0.487826,-0.25631 -0.429948,0 -0.545703,0.30592 -0.115755,0.30593 -0.115755,1.32292 v 6.21771 q 0,0.97565 0.115755,1.27331 0.115755,0.29765 0.520898,0.29765 0.388607,0 0.504362,-0.29765 0.124024,-0.29766 0.124024,-1.39734 v -1.67845 h 3.480924 v 0.5209 q 0,2.07533 -0.297656,2.94349 -0.289388,0.86817 -1.298112,1.52136 -1.000456,0.65319 -2.4722,0.65319 -1.529623,0 -2.52181,-0.55397 -0.992188,-0.55398 -1.314649,-1.52963 -0.32246,-0.98392 -0.32246,-2.95175 v -3.91088 q 0,-1.44694 0.09922,-2.16627 0.09922,-0.72761 0.587045,-1.39733 0.496093,-0.66973 1.364257,-1.05007 0.876433,-0.38861 2.00918,-0.38861 1.53789,0 2.538346,0.59532 1.000456,0.59531 1.314648,1.48828 0.314193,0.8847 0.314193,2.76159 z"
         style="font-style:normal;font-variant:normal;font-weight:normal;font-stretch:normal;font-size:16.93333244px;font-family:Impact;-inkscape-font-specification:Impact;stroke-width:0.26458332;fill:#ffffff;fill-opacity:1"
         id="path821"
         inkscape:connector-curvature="0" />
    </g>
  </g>
</svg>
